<svg width="93" height="48" viewBox="0 0 93 48" fill="none" xmlns="http://www.w3.org/2000/svg">
<path d="M76.1994 10.1672C74.2214 9.98736 69.9059 12.5047 69.7261 12.6846C66.8491 15.5616 80.5149 16.2808 80.5149 17C80.5149 17.7193 82.313 18.978 83.3919 20.2367C84.4708 21.4954 88.9661 22.7541 89.3258 21.3155C89.6854 19.877 87.168 18.978 86.4487 18.0789C85.7295 17.1798 87.168 16.4606 87.7074 16.2808C88.2469 16.101 91.6633 13.7634 87.168 10.1672C82.6727 6.57096 81.5938 9.62768 81.414 10.8864C81.2341 12.1451 78.3571 13.2239 78.7168 12.1451C79.0764 11.0662 78.1773 10.347 76.1994 10.1672Z" fill="#EBFF00" stroke="white" stroke-width="2"/>
<path d="M24.16 28.3402C24.165 28.3355 24.17 28.3307 24.1751 28.326C24.1691 28.3318 24.1645 28.336 24.1618 28.3385C24.1611 28.3392 24.1605 28.3398 24.16 28.3402ZM26.4744 28.0511C26.5204 28.0398 26.5657 28.0287 26.6105 28.0177V28.054L27.8531 27.7434L37.844 25.2456C38.0822 25.2155 38.2781 25.1216 38.4351 25.0051L38.4583 25.0515L39.2287 24.8694C42.1473 24.1797 44.344 23.6432 45.8138 23.2606C46.5464 23.0699 47.1108 22.9144 47.4973 22.7952C47.6865 22.7369 47.856 22.6804 47.9876 22.6272C48.0479 22.6029 48.1382 22.5642 48.2274 22.5111C48.2683 22.4867 48.3535 22.4334 48.4408 22.3479C48.4746 22.3149 48.5881 22.2024 48.6677 22.018V22.5416L49.9116 22.2287C55.0372 20.9395 58.9312 20.1424 61.8567 19.6142C60.9565 19.8458 59.9192 20.1057 58.7041 20.397C58.4957 20.437 58.3408 20.5365 58.2373 20.6264C58.007 20.6445 57.7237 20.6917 57.4255 20.7487C57.014 20.8274 56.4832 20.9432 55.8378 21.0945C54.5687 21.392 52.8255 21.8336 50.6122 22.4179C49.8547 22.4312 49.1349 22.5609 48.5513 22.9038L48.5272 22.8555L47.7524 23.0446C42.3307 24.3674 37.3825 25.7349 33.5562 26.8205C32.4435 27.1362 31.4323 27.426 30.5349 27.6832C28.3142 28.3197 26.7897 28.7566 26.1459 28.8921L26.235 30.8638C26.235 30.8638 26.2366 30.864 26.2398 30.8646C26.2431 30.8652 26.2478 30.8662 26.2542 30.8679C26.2671 30.8711 26.2853 30.8766 26.3091 30.8854C26.3576 30.9034 26.422 30.9327 26.5024 30.9782C26.6654 31.0703 26.8657 31.2126 27.0976 31.412C27.5617 31.8111 28.0935 32.3877 28.6355 33.0974C29.7213 34.5189 30.774 36.376 31.3742 38.1824C31.9898 40.0351 32.0537 41.5987 31.5123 42.617C31.0307 43.5228 29.8608 44.3473 27.0511 44.2349L26.9811 44.5101C26.9343 44.523 26.8804 44.5415 26.8231 44.5682C26.7051 44.6232 26.5272 44.7349 26.3949 44.9477C26.3285 45.0545 26.2834 45.172 26.2608 45.2938C26.2385 45.4137 26.2406 45.5239 26.2538 45.6172C26.2669 45.7092 26.2908 45.7864 26.3145 45.8462C26.3383 45.9061 26.3645 45.9554 26.3872 45.9933C26.4313 46.0668 26.4763 46.1204 26.5054 46.1525C26.5623 46.2152 26.6152 46.2576 26.6397 46.2766C26.669 46.2993 26.6949 46.3169 26.7126 46.3286C26.7313 46.3408 26.7484 46.3513 26.7623 46.3596C26.7898 46.376 26.8161 46.3904 26.8379 46.402C26.92 46.4457 27.0246 46.4948 27.1223 46.5389C27.225 46.5853 27.3392 46.6347 27.4489 46.6801C27.5569 46.7249 27.6691 46.7695 27.7655 46.8043C27.8124 46.8212 27.8675 46.8402 27.9221 46.8561C27.9489 46.8639 27.9876 46.8745 28.032 46.8838C28.0546 46.8885 28.0863 46.8944 28.1238 46.8991C28.1575 46.9033 28.2194 46.9095 28.2963 46.9065C28.3359 46.9049 28.3923 46.9004 28.4587 46.8869C28.5227 46.8739 28.6198 46.8479 28.7275 46.7912C28.8366 46.7338 28.9741 46.6354 29.0859 46.4738H37.2006C37.6052 46.4738 37.8536 46.2427 37.9348 46.1568C38.0297 46.0565 38.083 45.959 38.1055 45.9155C38.154 45.8215 38.1815 45.7344 38.1939 45.6932C38.223 45.5969 38.2467 45.4871 38.2664 45.3858C38.3078 45.1732 38.3551 44.8732 38.4081 44.4971C38.5149 43.7393 38.6534 42.6123 38.8235 41.1218C38.9653 39.8792 39.1295 38.3788 39.3162 36.6206C39.3395 36.83 39.3619 37.0312 39.3835 37.224C39.5035 38.2941 39.599 39.1112 39.6698 39.6726C39.7051 39.9523 39.7351 40.1749 39.7594 40.3358C39.7714 40.4151 39.7834 40.4885 39.7952 40.55C39.7983 40.566 39.8019 40.5841 39.8061 40.6034C39.934 42.3608 40.0583 43.7029 40.1802 44.617C40.2415 45.0762 40.3062 45.4605 40.3787 45.7439C40.4129 45.8778 40.4621 46.044 40.5383 46.1964C40.5752 46.2701 40.6449 46.3955 40.7636 46.5155C40.8825 46.6357 41.1368 46.8335 41.5161 46.8335H50.267H50.5031L50.7143 46.7279L50.954 46.608L51.3042 46.4329L51.4424 46.0666C51.7737 45.1887 53.5656 39.7818 56.8082 29.8801C56.3778 33.7697 55.8238 38.9735 55.1463 45.4903L55.1409 45.5419V45.5937C55.1409 45.8278 55.2001 46.187 55.4938 46.4806C55.7874 46.7743 56.1466 46.8335 56.3807 46.8335H56.3982L56.4158 46.8328L66.6652 46.4732C66.8149 46.4678 67.0552 46.4248 67.2774 46.2369C67.5279 46.025 67.6078 45.7547 67.6266 45.5778C67.6551 45.3094 67.5639 45.1042 67.5511 45.0754C67.5506 45.0743 67.5502 45.0734 67.55 45.0729C67.5052 44.9685 67.4499 44.8906 67.4415 44.8784C67.4053 44.826 67.3631 44.773 67.3339 44.737C67.2748 44.6638 67.1894 44.5622 67.0916 44.4459L67.0613 44.4098C66.8338 44.1391 66.5089 43.7512 66.1242 43.2659C65.3533 42.2934 64.35 40.9388 63.4387 39.3903C62.5241 37.8362 61.7243 36.1237 61.3302 34.4333C60.9367 32.7454 60.9623 31.1475 61.6049 29.7487C63.0684 26.5635 65.1421 24.0724 66.8612 22.3724C67.7188 21.5244 68.4826 20.8788 69.0284 20.4476C69.3011 20.2321 69.5189 20.0707 69.6662 19.9646C69.7398 19.9116 69.7957 19.8724 69.832 19.8474L69.8715 19.8204L69.8797 19.8149L69.8799 19.8147L69.8804 19.8144L69.8806 19.8142L69.8808 19.8141L72.9245 17.7955L70.447 17.9226L71.1498 17.6505L70.0209 16.5634C68.9231 15.5063 68.5769 14.6761 68.5234 13.9777C68.4669 13.2396 68.7182 12.4555 69.2145 11.4388C69.389 11.0814 69.5934 10.6999 69.8117 10.2927C70.7793 8.48747 72.0189 6.17495 72.1247 3.1932L72.1254 3.17546V3.15772C72.1254 2.88934 72.0425 2.55574 71.7726 2.2858C71.5207 2.03397 71.2189 1.95184 71.0097 1.92569L70.9479 1.91797H70.8856H55.6614H55.0711L54.7859 2.43489C54.7053 2.5809 54.6148 2.80844 54.5277 3.03878C54.4307 3.29492 54.3088 3.63437 54.1627 4.05374C53.8701 4.89357 53.4734 6.07504 52.9733 7.59532C51.9727 10.637 50.553 15.0513 48.7146 20.8362L48.6849 20.9298C48.3935 18.064 48.1632 15.8876 47.994 14.4027C47.9039 13.6117 47.8303 13.0097 47.7736 12.6024C47.7456 12.4013 47.7198 12.2335 47.6963 12.1098C47.6868 12.0596 47.6737 11.9955 47.6565 11.9318C47.4108 8.91862 47.1882 6.63688 46.9881 5.09679C46.8873 4.32007 46.7888 3.70527 46.6906 3.27325C46.6432 3.0646 46.5857 2.85186 46.5104 2.67334C46.4748 2.58912 46.4116 2.45415 46.3058 2.32381C46.218 2.2157 45.9429 1.91797 45.472 1.91797H30.2478H30.0332L29.8374 2.00604C26.9082 3.3241 24.7315 4.56002 23.1616 5.74638C21.595 6.93033 20.5785 8.10562 20.0542 9.31907C18.9584 11.8555 20.1905 14.0718 21.487 15.8786C21.8155 16.3364 22.1661 16.7916 22.5068 17.2337L22.5205 17.2516C22.8692 17.7042 23.2079 18.1442 23.5258 18.5875C24.1656 19.4796 24.6768 20.3258 24.9582 21.1749C25.2322 22.0017 25.2876 22.8281 25.0113 23.7155C24.7297 24.6201 24.0773 25.6711 22.7888 26.8843L23.4742 27.6124L22.7887 26.8843L22.7862 26.8867C22.7431 26.9271 22.5308 27.1262 22.4719 27.4664C22.4344 27.6833 22.4652 27.9308 22.5985 28.1558C22.7202 28.3611 22.8837 28.4743 22.9897 28.5318C23.1802 28.6352 23.3578 28.652 23.4082 28.6567C23.4855 28.6639 23.5539 28.6627 23.6007 28.6607C23.7716 28.6534 23.9834 28.6177 24.1682 28.5827C24.5676 28.5072 25.1168 28.3797 25.6532 28.2508C25.9518 28.1791 26.222 28.1129 26.4744 28.0511ZM27.2509 46.4738H27.2524H27.2509ZM27.6105 26.7732H28.6105C28.6105 26.6874 28.5999 26.6063 28.581 26.5306L27.6105 26.7732Z" fill="#007AEB" stroke="white" stroke-width="2"/>
<path d="M85.872 21.7799C84.4335 15.0189 74.7235 12.8491 70.0484 12.6094C68.2503 13.5084 70.5878 17.2845 73.6447 18.5432C74.476 18.8855 73.8245 19.8019 72.2061 20.3414C70.5878 20.8808 70.5878 22.3193 71.1273 23.3982C71.3685 23.8807 72.9254 26.2752 70.5878 24.8367C68.2503 23.3982 66.0925 25.5559 64.4742 27.3541C62.8558 29.1522 62.3164 30.9504 62.3164 33.2879C62.3164 35.6255 64.1145 34.3668 68.6099 36.3448C73.1052 38.3227 75.8024 36.3448 76.8813 35.0861C77.9602 33.8274 76.8813 31.8494 76.5217 30.9504C76.162 30.0513 76.8813 28.0733 77.7804 30.4109C78.4996 32.281 80.8372 32.1491 81.9161 31.8494C83.8341 31.31 87.3105 28.5409 85.872 21.7799Z" fill="#00FFF0" stroke="white" stroke-width="2"/>
<path d="M88.5125 29.0149C89.5195 27.4325 88.9321 25.2388 88.5125 24.3397C90.6702 23.8003 91.9291 28.4754 91.7493 31.5323C91.5695 34.5891 87.7933 34.0497 86.8942 33.1506C85.9951 32.2515 87.2538 30.9928 88.5125 29.0149Z" fill="#FF74C7" stroke="white" stroke-width="2"/>
<path d="M86.0409 5.4462C84.4192 4.50388 82.251 5.17928 81.3696 5.63477C80.7435 3.50064 85.3641 2.05415 88.4257 2.11053C91.4873 2.1669 91.1006 5.96179 90.2385 6.89639C89.3765 7.83099 88.068 6.62409 86.0409 5.4462Z" fill="#00FFC2" stroke="white" stroke-width="2"/>
<path d="M16.5682 18.0783C18.5462 17.8985 22.8617 20.4159 23.0415 20.5957C25.9185 23.4728 12.2527 24.1919 12.2527 24.9112C12.2527 25.6304 10.4546 26.8891 9.37567 28.1478C8.29679 29.4065 3.80145 30.6652 3.44183 29.2267C3.0822 27.7882 5.59959 26.8891 6.31884 25.99C7.0381 25.091 5.59959 24.3717 5.06015 24.1919C4.52071 24.0121 1.10425 21.6745 5.59959 18.0783C10.0949 14.4821 11.1738 17.5388 11.3536 18.7975C11.5334 20.0562 14.4105 21.1351 14.0508 20.0562C13.6912 18.9773 14.5903 18.2581 16.5682 18.0783Z" fill="#EBFF00" stroke="white" stroke-width="2"/>
<path d="M6.8956 29.691C8.33411 22.93 18.044 20.7603 22.7192 20.5205C24.5173 21.4196 22.1798 25.1957 19.1229 26.4544C18.2916 26.7967 18.9431 27.713 20.5614 28.2525C22.1798 28.7919 22.1798 30.2304 21.6403 31.3093C21.3991 31.7918 19.8422 34.1863 22.1798 32.7478C24.5173 31.3093 26.6751 33.4671 28.2934 35.2652C29.9117 37.0634 30.4512 38.8615 30.4512 41.1991C30.4512 43.5366 28.653 42.2779 24.1577 44.2559C19.6624 46.2338 16.9652 44.2559 15.8863 42.9972C14.8074 41.7385 15.8863 39.7606 16.2459 38.8615C16.6055 37.9624 15.8863 35.9845 14.9872 38.322C14.268 40.1921 11.9304 40.0602 10.8515 39.7606C8.93349 39.2211 5.45709 36.452 6.8956 29.691Z" fill="#00FFF0" stroke="white" stroke-width="2"/>
<path d="M4.25309 36.927C3.24614 35.3446 3.83353 33.1509 4.25309 32.2518C2.09545 31.7124 0.836514 36.3875 1.01633 39.4444C1.19614 42.5012 4.97235 41.9618 5.87142 41.0627C6.77048 40.1636 5.51179 38.9049 4.25309 36.927Z" fill="#FF74C7" stroke="white" stroke-width="2"/>
<path d="M6.72472 13.3583C8.3464 12.416 10.5147 13.0914 11.3961 13.5469C12.0221 11.4127 7.40152 9.96626 4.33993 10.0226C1.27834 10.079 1.66502 13.8739 2.5271 14.8085C3.38917 15.7431 4.69761 14.5362 6.72472 13.3583Z" fill="#00FFC2" stroke="white" stroke-width="2"/>
</svg>
