<svg width="15" height="15" viewBox="0 0 15 15" fill="none" xmlns="http://www.w3.org/2000/svg">
<path d="M0 6C0 2.68629 2.68629 0 6 0H9C12.3137 0 15 2.68629 15 6V8.11765C15 11.4314 12.3137 14.1176 9 14.1176H0V6Z" fill="#FF74C7"/>
<path d="M0.882812 12.3531C0.882812 11.8657 1.27786 11.4707 1.76517 11.4707C2.25248 11.4707 2.64752 11.8657 2.64752 12.3531C2.64752 12.8404 2.25248 13.2354 1.76517 13.2354H0.882812V12.3531Z" fill="white"/>
<rect x="1.53906" y="3.68066" width="3.96977" height="3.96977" rx="1.98488" transform="rotate(-20.572 1.53906 3.68066)" fill="#007AEB"/>
<rect x="8.80859" y="0.698242" width="3.96977" height="3.96977" rx="1.98488" transform="rotate(25.5439 8.80859 0.698242)" fill="#EBFF00"/>
<rect x="13.3242" y="7.79004" width="3.96977" height="3.96977" rx="1.98488" transform="rotate(100.75 13.3242 7.79004)" fill="#00FFC2"/>
<rect x="7.72461" y="12.5469" width="3.96977" height="3.96977" rx="1.98488" transform="rotate(170.007 7.72461 12.5469)" fill="#FF008A"/>
</svg>
