<svg width="21" height="18" viewBox="0 0 21 18" fill="none" xmlns="http://www.w3.org/2000/svg">
<path d="M2.24054 0.828332C2.54995 0.370857 3.17164 0.250827 3.62911 0.560237L5.16832 1.60127L2.36713 5.74293L-0.000405788 4.14166L2.24054 0.828332Z" fill="#007AEB"/>
<path d="M12.7419 0.828332C12.4325 0.370857 11.8108 0.250827 11.3533 0.560237L9.81411 1.60127L12.6153 5.74293L14.9828 4.14166L12.7419 0.828332Z" fill="#007AEB"/>
<path d="M2.81445 1C7.81445 2.28571 7.31445 2.28571 11.8145 1C11.8145 4.51472 10.3145 7 11.8145 10H2.81445C4.81445 7.5 2.81445 4.51472 2.81445 1Z" fill="#007AEB"/>
<path d="M4.81445 1.5C7.31445 2.5 7.31445 2.5 9.81445 1.5C7.81445 3 8.29076 3.63316 7.31445 5C6.33814 3.63316 6.81445 3 4.81445 1.5Z" fill="#00FFC2"/>
<path d="M19.4728 9.92301C20.0187 9.69544 20.2489 9.0464 19.9684 8.52573L18.7682 6.2979L15.0779 8.20532L14.4421 8.84113C13.8063 10.1127 13.1705 11.3844 14.4421 12.0202L19.4728 9.92301Z" fill="#007AEB"/>
<path d="M11.68 12.049C11.4198 11.6114 11.5298 11.0482 11.9356 10.7407L14.443 8.84111C13.5613 12.6554 15.8556 13.3561 16.6039 16.2486L14.6887 17.1072L11.68 12.049Z" fill="#007AEB"/>
<path d="M15.3029 12.0768C15.0357 11.6276 15.1594 11.0486 15.5868 10.7478L18.2942 8.84216C17.4125 12.6565 19.462 13.3563 20.2103 16.2488L18.2952 17.1074L15.3029 12.0768Z" fill="#007AEB"/>
<rect x="14.4258" y="6.99512" width="4.44397" height="1.06283" transform="rotate(-26.6698 14.4258 6.99512)" fill="#003261"/>
<rect x="14.4434" y="6.86914" width="1.27161" height="1.27161" transform="rotate(-26.6698 14.4434 6.86914)" fill="#00FFC2"/>
</svg>
