<svg width="15" height="7" viewBox="0 0 15 7" fill="none" xmlns="http://www.w3.org/2000/svg">
<rect width="14.5182" height="5.48706" transform="matrix(0.994335 -0.106294 0.102791 0.994703 0 1.54297)" fill="#007AEB"/>
<path d="M6.73026 3.80911C6.73818 3.93577 6.73261 4.06321 6.71355 4.19143C6.69449 4.31965 6.65767 4.4386 6.6031 4.54828C6.5498 4.65782 6.47581 4.74854 6.38115 4.82044C6.28648 4.89234 6.1682 4.93587 6.02632 4.95104C5.94068 4.96019 5.86308 4.95337 5.79352 4.93057C5.72382 4.90648 5.66365 4.86822 5.613 4.8158C5.56363 4.76324 5.52519 4.69768 5.49769 4.61913C5.47005 4.53927 5.45554 4.44881 5.45414 4.34775L5.43766 3.23157L5.7732 3.1957L5.79159 4.31167C5.79212 4.3918 5.80012 4.45667 5.81558 4.50628C5.83233 4.55575 5.85361 4.59291 5.87944 4.61775C5.90527 4.64259 5.93342 4.65864 5.9639 4.6659C5.99437 4.67316 6.02431 4.67522 6.05371 4.67207C6.12273 4.6647 6.18271 4.63857 6.23365 4.59369C6.28445 4.54751 6.32539 4.48727 6.35649 4.41296C6.38872 4.33722 6.41087 4.25139 6.42293 4.15546C6.43626 4.05939 6.4392 3.95655 6.43175 3.84694C6.42189 3.66397 6.39625 3.49714 6.35484 3.34647C6.31328 3.19449 6.25558 3.06133 6.18173 2.94698C6.10916 2.83249 6.02 2.73884 5.91426 2.66602C5.80965 2.59176 5.68796 2.53971 5.54918 2.50985C5.4104 2.48 5.25472 2.47429 5.08216 2.49274C4.92366 2.50968 4.77985 2.55003 4.65074 2.61378C4.52163 2.67753 4.40886 2.76188 4.31244 2.86683C4.21589 2.97048 4.13598 3.0914 4.07272 3.22961C4.0106 3.36638 3.96615 3.51769 3.93934 3.68355C3.91369 3.84797 3.9065 4.02225 3.91777 4.20638C3.9287 4.39975 3.95643 4.57423 4.00094 4.72984C4.04673 4.88531 4.10854 5.02066 4.18635 5.1359C4.26417 5.25114 4.3566 5.3451 4.46362 5.41778C4.57205 5.49163 4.69368 5.54304 4.82849 5.572C4.96459 5.60083 5.11252 5.6067 5.2723 5.58962C5.38479 5.5776 5.49721 5.55244 5.60956 5.51414C5.7232 5.4757 5.81742 5.43079 5.89224 5.37942L5.9919 5.631C5.90847 5.69907 5.80113 5.75458 5.66987 5.79753C5.53861 5.84047 5.41354 5.8683 5.29466 5.88101C5.09653 5.90219 4.91234 5.89559 4.74207 5.86122C4.57308 5.8267 4.42007 5.76551 4.28305 5.67763C4.14743 5.59091 4.03056 5.47919 3.93243 5.34246C3.83429 5.20574 3.75567 5.04524 3.69657 4.86096C3.63746 4.67668 3.60063 4.47031 3.58606 4.24184C3.57298 4.02767 3.58425 3.82404 3.61986 3.63095C3.65535 3.43656 3.7131 3.25754 3.79311 3.09388C3.87441 2.93009 3.97581 2.78583 4.09733 2.66111C4.21999 2.53496 4.36196 2.43303 4.52323 2.35532C4.6845 2.27762 4.86356 2.22824 5.06041 2.2072C5.25981 2.18588 5.4428 2.19327 5.60937 2.22935C5.77593 2.26544 5.92517 2.3277 6.05709 2.41612C6.19028 2.50441 6.30459 2.61641 6.40003 2.75211C6.49548 2.88781 6.57114 3.04468 6.62701 3.22273C6.68276 3.39948 6.71717 3.59494 6.73026 3.80911ZM4.79944 4.20282C4.79963 4.29219 4.80712 4.37091 4.82191 4.43899C4.83798 4.50694 4.85993 4.56309 4.88778 4.60743C4.9169 4.65164 4.95191 4.68404 4.99281 4.70465C5.03371 4.72525 5.07973 4.73282 5.13086 4.72735C5.16281 4.72393 5.19588 4.71251 5.23006 4.69309C5.26538 4.67222 5.29906 4.64168 5.33109 4.60145C5.36312 4.56122 5.39202 4.50949 5.41779 4.44627C5.44344 4.38175 5.46249 4.30348 5.47495 4.21145L5.6382 4.36553C5.61928 4.47008 5.59148 4.56375 5.5548 4.64654C5.51799 4.72803 5.47415 4.79778 5.42328 4.8558C5.37228 4.91251 5.31559 4.958 5.25322 4.99227C5.19072 5.02525 5.12432 5.04549 5.05401 5.053C4.9607 5.06298 4.87547 5.05106 4.79831 5.01725C4.72243 4.98329 4.65758 4.93108 4.60377 4.86059C4.54983 4.7888 4.50783 4.70128 4.47777 4.59803C4.44758 4.49347 4.43145 4.37492 4.42939 4.24238C4.42833 4.10711 4.43979 3.98035 4.46376 3.86212C4.489 3.74375 4.52384 3.63684 4.56825 3.5414C4.61395 3.44582 4.66808 3.36313 4.73066 3.29335C4.7931 3.22227 4.86227 3.16624 4.93816 3.12526C5.0152 3.08285 5.0959 3.05714 5.18026 3.04812C5.3247 3.03268 5.43998 3.04139 5.52608 3.07425C5.61219 3.1071 5.69456 3.14759 5.7732 3.1957L5.61715 3.44899C5.57645 3.41785 5.52445 3.38989 5.46115 3.36511C5.39913 3.34019 5.32721 3.33211 5.24541 3.34085C5.17255 3.34864 5.10782 3.37265 5.05124 3.41287C4.99593 3.45296 4.94947 3.50985 4.91185 3.58353C4.8741 3.65592 4.84506 3.74381 4.82472 3.84719C4.80567 3.95044 4.79724 4.06899 4.79944 4.20282Z" fill="#00FFC2"/>
<path d="M7.4654 4.75579L7.68584 1.86148L8.00029 1.82786L7.77985 4.72218L7.4654 4.75579ZM8.21318 4.67586L8.43361 1.78154L8.74806 1.74792L8.52763 4.64224L8.21318 4.67586ZM9.12389 2.83357L7.12983 3.04674L7.0986 2.74447L9.09266 2.5313L9.12389 2.83357ZM9.07582 3.77525L7.07984 3.98862L7.0486 3.68636L9.04458 3.47298L9.07582 3.77525Z" fill="#00FFC2"/>
<path d="M9.31806 2.39088L9.30254 2.24072C9.29139 2.13281 9.30426 2.03219 9.34114 1.93887C9.37802 1.84554 9.43781 1.76752 9.5205 1.70478C9.60319 1.64205 9.70653 1.60406 9.83052 1.5908C9.95834 1.57714 10.0685 1.59231 10.1609 1.63633C10.2546 1.6802 10.329 1.74388 10.3842 1.82737C10.4393 1.91085 10.4725 2.00655 10.4836 2.11446L10.4992 2.26462C10.51 2.36992 10.497 2.46924 10.4602 2.56257C10.4246 2.65575 10.3654 2.73371 10.2827 2.79645C10.2013 2.85904 10.0973 2.8971 9.97078 2.91063C9.84552 2.92402 9.73539 2.90885 9.6404 2.86511C9.5467 2.82124 9.47227 2.75755 9.41711 2.67407C9.36196 2.59058 9.32894 2.49618 9.31806 2.39088ZM9.62274 2.20649L9.63826 2.35665C9.64364 2.40865 9.65833 2.45703 9.68234 2.50178C9.70763 2.5464 9.7422 2.58082 9.78606 2.60505C9.82992 2.62928 9.88189 2.63818 9.94197 2.63176C10.0033 2.6252 10.0517 2.60557 10.0871 2.57287C10.1238 2.54003 10.1493 2.49919 10.1636 2.45034C10.1779 2.40148 10.1824 2.35106 10.177 2.29905L10.1615 2.14889C10.156 2.09559 10.1406 2.04663 10.1153 2.00201C10.0912 1.95596 10.0578 1.92075 10.0152 1.89638C9.97266 1.87202 9.92069 1.86311 9.85934 1.86967C9.80054 1.87596 9.75216 1.89559 9.71421 1.92856C9.67754 1.9614 9.65147 2.00296 9.63599 2.05325C9.62165 2.10211 9.61724 2.15318 9.62274 2.20649ZM10.8293 3.8461L10.8136 3.69399C10.8026 3.58738 10.8155 3.48741 10.8524 3.39409C10.8905 3.30063 10.951 3.22253 11.0337 3.1598C11.1163 3.09707 11.2197 3.05907 11.3437 3.04582C11.4715 3.03215 11.5816 3.04733 11.6741 3.09134C11.7678 3.13521 11.8416 3.19896 11.8954 3.28259C11.9506 3.36607 11.9837 3.46112 11.9947 3.56773L12.0104 3.71984C12.0214 3.82644 12.0085 3.92641 11.9716 4.01973C11.936 4.11292 11.8775 4.19081 11.7961 4.25341C11.7147 4.316 11.6113 4.354 11.4861 4.36739C11.3595 4.38092 11.2487 4.36581 11.1538 4.32207C11.0601 4.2782 10.985 4.21459 10.9286 4.13124C10.8734 4.04775 10.8403 3.9527 10.8293 3.8461ZM11.1357 3.65955L11.1514 3.81166C11.1568 3.86366 11.1721 3.91197 11.1974 3.95659C11.224 4.00107 11.2593 4.03608 11.3033 4.06161C11.3471 4.08583 11.3978 4.09487 11.4553 4.08873C11.5205 4.08176 11.5714 4.06185 11.6081 4.02902C11.6447 3.99488 11.6689 3.95417 11.6808 3.90689C11.6939 3.85817 11.6976 3.80716 11.6921 3.75386L11.6764 3.60175C11.6709 3.54845 11.6555 3.49949 11.6302 3.45487C11.6062 3.41012 11.5723 3.37563 11.5284 3.3514C11.4858 3.32703 11.4338 3.31813 11.3725 3.32469C11.3124 3.33111 11.264 3.35074 11.2274 3.38358C11.1907 3.41641 11.1646 3.45733 11.1489 3.50632C11.1346 3.55517 11.1302 3.60625 11.1357 3.65955ZM11.3396 1.88099L10.2057 4.24597L9.95556 4.13272L11.0895 1.76775L11.3396 1.88099Z" fill="#00FFC2"/>
</svg>
