<svg width="48" height="48" viewBox="0 0 48 48" fill="none" xmlns="http://www.w3.org/2000/svg">
<rect width="47.999" height="47.999" rx="23.9995" fill="white"/>
<path fill-rule="evenodd" clip-rule="evenodd" d="M43.5267 37.9545C39.1731 44.037 32.0484 48.0009 23.9979 48.0009C16.4388 48.0009 9.69595 44.5062 5.29688 39.0443C8.93131 32.0231 16.2622 27.2246 24.7139 27.2246C32.7207 27.2246 39.7217 31.5313 43.5267 37.9545Z" fill="#007AEB"/>
<rect x="14.3281" y="5.73145" width="20.7757" height="20.7757" rx="10.3878" fill="#007AEB"/>
<rect x="14.3281" y="8.5957" width="20.7757" height="15.7608" fill="white"/>
<path d="M33.5463 11.9661C32.9039 11.9077 31.5021 12.7254 31.4437 12.7838C30.5092 13.7183 34.9481 13.9519 34.9481 14.1855C34.9481 14.4192 35.5322 14.828 35.8826 15.2368C36.233 15.6457 37.6932 16.0545 37.81 15.5873C37.9268 15.12 37.1091 14.828 36.8755 14.536C36.6419 14.2439 37.1091 14.0103 37.2844 13.9519C37.4596 13.8935 38.5693 13.1342 37.1091 11.9661C35.649 10.798 35.2985 11.7909 35.2401 12.1997C35.1817 12.6086 34.2472 12.959 34.364 12.6086C34.4809 12.2581 34.1888 12.0245 33.5463 11.9661Z" fill="#007AEB" stroke="#007AEB" stroke-width="0.5"/>
<path d="M23.5643 9.61133C23.6616 9.61133 23.7914 10.6107 23.9537 12.6095C23.9796 12.6095 24.0964 13.6349 24.3041 15.6856C24.3041 15.731 23.3566 15.9776 21.4616 16.4254C21.4357 16.3735 21.3968 16.049 21.3448 15.452H21.3059C21.267 16.1788 21.1761 16.5422 21.0333 16.5422L17.7626 17.3599C17.7626 17.334 16.3126 17.7327 16.419 17.6325C19.9824 14.2776 11.1047 12.9926 18.6192 9.61133H23.5643ZM31.8191 9.61133C31.871 9.61782 31.8969 9.64378 31.8969 9.6892C31.8191 11.8829 29.7359 12.759 31.3129 14.2776C30.8262 14.466 29.1583 14.5045 24.9271 15.5688V15.5298C26.1212 11.7724 26.7701 9.79953 26.874 9.61133H31.8191ZM28.5094 18.1908C27.5165 20.3518 30.4887 23.4342 30.4368 23.4342L27.1076 23.551C27.0557 23.551 27.0297 23.525 27.0297 23.4731C27.5749 18.2295 27.8734 15.6077 27.9253 15.6077C30.0928 15.0886 30.5536 14.8679 31.3129 14.829C31.3129 14.829 29.5023 16.0298 28.5094 18.1908ZM27.7695 15.6856V15.7245C26.1861 20.5723 25.3295 23.1681 25.1997 23.5121L25.1218 23.551H22.2793C22.208 23.551 22.1301 22.9669 22.0457 21.7988C22.0198 21.7469 21.864 20.3581 21.5785 17.6325H21.5395C21.1501 21.5003 20.9295 23.4342 20.8776 23.4342H17.6458C17.5938 23.4342 18.4635 23.7978 17.5679 23.3563C21.4616 23.5121 18.3467 18.4828 17.3537 18.366C17.9703 18.2362 20.8711 17.321 24.382 16.4644L24.4209 16.5422V16.8148H24.4988C24.4988 16.4514 24.7584 16.2697 25.2775 16.2697C26.7507 15.8803 27.5813 15.6856 27.7695 15.6856Z" fill="#007AEB"/>
<path d="M36.6884 15.7385C36.2211 13.5424 33.0672 12.8376 31.5486 12.7598C30.9645 13.0518 31.7238 14.2783 32.7167 14.6872C32.9868 14.7984 32.7751 15.096 32.2495 15.2712C31.7238 15.4465 31.7238 15.9137 31.899 16.2642C31.9774 16.4209 32.4831 17.1987 31.7238 16.7314C30.9645 16.2642 30.2636 16.965 29.738 17.5491C29.2123 18.1332 29.0371 18.7172 29.0371 19.4765C29.0371 20.2358 29.6212 19.8269 31.0813 20.4694C32.5415 21.1119 33.4176 20.4694 33.768 20.0606C34.1185 19.6517 33.768 19.0093 33.6512 18.7172C33.5344 18.4252 33.768 17.7827 34.0601 18.542C34.2937 19.1494 35.053 19.1066 35.4034 19.0093C36.0264 18.834 37.1556 17.9346 36.6884 15.7385Z" fill="#007AEB" stroke="#007AEB" stroke-width="0.5"/>
<path d="M37.5464 18.0891C37.8735 17.5752 37.6827 16.8626 37.5464 16.5706C38.2472 16.3953 38.6562 17.9139 38.5978 18.9068C38.5393 19.8997 37.3128 19.7245 37.0207 19.4325C36.7287 19.1404 37.1376 18.7316 37.5464 18.0891Z" fill="#007AEB" stroke="#007AEB" stroke-width="0.5"/>
<path d="M36.7443 10.4323C36.2176 10.1263 35.5133 10.3456 35.227 10.4936C35.0237 9.80039 36.5245 9.33055 37.5189 9.34886C38.5134 9.36717 38.3878 10.5998 38.1078 10.9034C37.8278 11.207 37.4028 10.8149 36.7443 10.4323Z" fill="#007AEB" stroke="#007AEB" stroke-width="0.5"/>
<path d="M14.1763 14.5364C14.8188 14.478 16.2205 15.2957 16.2789 15.3541C17.2134 16.2886 12.7746 16.5222 12.7746 16.7558C12.7746 16.9895 12.1905 17.3983 11.8401 17.8072C11.4896 18.216 10.0295 18.6248 9.91264 18.1576C9.79583 17.6903 10.6135 17.3983 10.8471 17.1063C11.0808 16.8142 10.6135 16.5806 10.4383 16.5222C10.2631 16.4638 9.15335 15.7045 10.6135 14.5364C12.0737 13.3683 12.4241 14.3612 12.4825 14.77C12.5409 15.1789 13.4754 15.5293 13.3586 15.1789C13.2418 14.8284 13.5338 14.5948 14.1763 14.5364Z" fill="#007AEB" stroke="#007AEB" stroke-width="0.5"/>
<path d="M11.0363 18.3078C11.5035 16.1117 14.6575 15.407 16.176 15.3291C16.7601 15.6211 16.0008 16.8477 15.0079 17.2565C14.7379 17.3677 14.9495 17.6654 15.4751 17.8406C16.0008 18.0158 16.0008 18.4831 15.8256 18.8335C15.7472 18.9902 15.2415 19.768 16.0008 19.3007C16.7601 18.8335 17.461 19.5344 17.9866 20.1184C18.5123 20.7025 18.6875 21.2866 18.6875 22.0458C18.6875 22.8051 18.1034 22.3963 16.6433 23.0388C15.1831 23.6812 14.307 23.0388 13.9566 22.6299C13.6061 22.2211 13.9566 21.5786 14.0734 21.2866C14.1902 20.9945 13.9566 20.3521 13.6645 21.1113C13.4309 21.7188 12.6716 21.6759 12.3212 21.5786C11.6982 21.4034 10.569 20.5039 11.0363 18.3078Z" fill="#007AEB" stroke="#007AEB" stroke-width="0.5"/>
<path d="M10.1782 20.6585C9.85114 20.1445 10.0419 19.4319 10.1782 19.1399C9.47738 18.9647 9.06845 20.4832 9.12686 21.4762C9.18526 22.4691 10.4118 22.2938 10.7039 22.0018C10.9959 21.7098 10.5871 21.3009 10.1782 20.6585Z" fill="#007AEB" stroke="#007AEB" stroke-width="0.5"/>
<path d="M10.9803 13.0036C11.507 12.6975 12.2113 12.9169 12.4976 13.0649C12.701 12.3717 11.2001 11.9018 10.2057 11.9201C9.2112 11.9385 9.33681 13.1711 9.61682 13.4747C9.89684 13.7782 10.3218 13.3862 10.9803 13.0036Z" fill="#007AEB" stroke="#007AEB" stroke-width="0.5"/>
</svg>
