<svg width="15" height="16" viewBox="0 0 15 16" fill="none" xmlns="http://www.w3.org/2000/svg">
<path d="M3.2253 10.4683C4.65026 12.7617 7.70687 13.4395 10.0524 11.9821C12.398 10.5248 13.1442 7.4842 11.7193 5.19077C10.2943 2.89734 8.36228 0.0819297 6.01673 1.53928C11.5937 8.14666 1.80034 8.17486 3.2253 10.4683Z" fill="#EBFF00"/>
<path d="M3 10C3 13.3137 5.68629 16 9 16C12.3137 16 15 13.3137 15 10C15 6.68629 14.8137 2.5 11.5 2.5C13 13 3 6.68629 3 10Z" fill="#FFA800"/>
<path d="M14 10.1111C14 12.8112 11.7614 15 9 15C6.23858 15 4 12.8112 4 10.1111C4 7.41105 4.15524 4 6.91667 4C5.66667 12.5556 14 7.41105 14 10.1111Z" fill="#FF0000"/>
</svg>
