<svg width="17" height="17" viewBox="0 0 17 17" fill="none" xmlns="http://www.w3.org/2000/svg">
<path d="M0.990193 10.069C0.837043 8.82169 1.72403 7.68639 2.97134 7.53324L5.02923 7.28057L5.31884 9.63929C5.46519 10.8312 4.61759 11.9161 3.42566 12.0624C2.23374 12.2088 1.14886 11.3612 1.00251 10.1693L0.990193 10.069Z" fill="#FF74C7"/>
<path d="M3.23541 2.85433C3.15178 2.17323 3.63612 1.5533 4.31722 1.46967L5.10952 7.92237L3.87628 8.0738L3.23541 2.85433Z" fill="#FF74C7"/>
<path d="M6.53902 9.38442C6.38587 8.13712 7.27286 7.00182 8.52016 6.84867L10.5781 6.596L10.8677 8.95472C11.014 10.1466 10.1664 11.2315 8.97449 11.3779C7.78257 11.5242 6.69768 10.6766 6.55133 9.4847L6.53902 9.38442Z" fill="#FF74C7"/>
<path d="M10.0206 2.02523C9.93693 1.34413 9.317 0.859786 8.6359 0.943415L9.42819 7.39612L10.6614 7.24469L10.0206 2.02523Z" fill="#FF74C7"/>
<rect x="3.70117" y="1.54883" width="5.59125" height="3.25058" rx="0.523472" transform="rotate(-7 3.70117 1.54883)" fill="#FF74C7"/>
<path d="M10.5188 12.6338C10.6141 11.3831 11.7037 10.4649 12.9525 10.5831L15.0295 10.7796L14.8499 13.1365C14.7585 14.3363 13.7132 15.2171 12.5153 15.1037C11.3174 14.9903 10.4204 13.9258 10.5118 12.726L10.5188 12.6338Z" fill="#00FFC2"/>
<path d="M14.1417 6.08124C14.194 5.39564 14.7913 4.89235 15.4758 4.95713L14.9827 11.4276L13.7433 11.3103L14.1417 6.08124Z" fill="#00FFC2"/>
</svg>
