<svg width="15" height="16" viewBox="0 0 15 16" fill="none" xmlns="http://www.w3.org/2000/svg">
<path d="M5.45563 0H10.3841C10.3841 0 9.56269 2.01249 9.56269 3.36842C9.56269 4.72436 10.7948 7.15789 10.7948 7.15789H5.04492C5.04492 7.15789 6.27704 4.72436 6.27704 3.36842C6.27704 2.01249 5.45563 0 5.45563 0Z" fill="#007AEB"/>
<path d="M3.8125 8.94685C3.8125 7.72601 4.80219 6.73633 6.02303 6.73633H9.8161C11.0369 6.73633 12.0266 7.72601 12.0266 8.94685V13.4732H3.8125V8.94685Z" fill="#007AEB"/>
<path d="M3.8125 14.3158C3.8125 15.246 4.56655 16 5.49671 16H10.3424C11.2726 16 12.0266 15.246 12.0266 14.3158H3.8125Z" fill="#FF74C7"/>
<rect x="2.99219" y="13.4736" width="9.85695" height="0.842105" rx="0.421053" fill="#00FFC2"/>
<path fill-rule="evenodd" clip-rule="evenodd" d="M12.2617 6.37609C13.0596 6.08725 13.6313 5.30728 13.6313 4.39042C13.6313 3.47356 13.0596 2.69359 12.2617 2.40474C12.4757 2.3273 12.7059 2.28516 12.9457 2.28516C14.0798 2.28516 14.9992 3.22771 14.9992 4.39042C14.9992 5.55312 14.0798 6.49568 12.9457 6.49568C12.7059 6.49568 12.4757 6.45354 12.2617 6.37609Z" fill="#EBFF00"/>
<ellipse cx="2.05397" cy="6.31493" rx="0.473892" ry="0.48583" fill="#EBFF00"/>
<rect x="1.89648" y="4.20996" width="0.315928" height="1.29555" rx="0.157964" fill="#EBFF00"/>
<rect x="1.89648" y="7.125" width="0.315928" height="1.29555" rx="0.157964" fill="#EBFF00"/>
<rect width="0.319793" height="1.28028" rx="0.159897" transform="matrix(0.710645 -0.70355 0.685667 0.727916 0.511719 4.91504)" fill="#EBFF00"/>
<rect width="0.319793" height="1.28028" rx="0.159897" transform="matrix(0.710645 -0.70355 0.685667 0.727916 2.49023 7.00781)" fill="#EBFF00"/>
<rect width="0.319932" height="1.27973" rx="0.159966" transform="matrix(-0.698257 -0.715847 0.698257 -0.715847 0.710938 7.91699)" fill="#EBFF00"/>
<rect width="0.319932" height="1.27973" rx="0.159966" transform="matrix(-0.698257 -0.715847 0.698257 -0.715847 2.72461 5.8584)" fill="#EBFF00"/>
<rect y="6.48242" width="0.323887" height="1.26371" rx="0.161943" transform="rotate(-90 0 6.48242)" fill="#EBFF00"/>
<rect x="2.84375" y="6.47363" width="0.323887" height="1.26371" rx="0.161943" transform="rotate(-90 2.84375 6.47363)" fill="#EBFF00"/>
</svg>
