<svg width="24" height="24" viewBox="0 0 24 24" fill="none" xmlns="http://www.w3.org/2000/svg">
<path d="M13.2 24H10.8V20.4H13.2V24ZM19.6368 21.3336L17.0916 18.7884L18.7884 17.0916L21.3348 19.638L19.6392 21.3336H19.6368ZM4.3632 21.3336L2.6652 19.6368L5.2092 17.0904L6.9072 18.7872L4.3632 21.3324V21.3336ZM12 18.0084C8.68196 18.0071 5.99312 15.3164 5.994 11.9984C5.99488 8.68037 8.68517 5.99116 12.0032 5.9916C15.3212 5.99204 18.0108 8.68196 18.0108 12C18.0075 15.3179 15.3179 18.0064 12 18.0084ZM12 8.3916C10.0074 8.39293 8.39312 10.009 8.394 12.0016C8.39488 13.9942 10.0106 15.6088 12.0032 15.6084C13.9958 15.608 15.6108 13.9926 15.6108 12C15.6088 10.007 13.993 8.39226 12 8.3916ZM24 13.2H20.4V10.8H24V13.2ZM3.6 13.2H0V10.8H3.6V13.2ZM18.7872 6.9096L17.0916 5.2116L19.6368 2.6652L21.3348 4.3632L18.7884 6.9084L18.7872 6.9096ZM5.2116 6.9096L2.6676 4.3644L4.3656 2.6676L6.9096 5.214L5.2128 6.9084L5.2116 6.9096ZM13.2 3.6H10.8V0H13.2V3.6Z" fill="#007AEB"/>
</svg>
