<svg width="15" height="13" viewBox="0 0 15 13" fill="none" xmlns="http://www.w3.org/2000/svg">
<path d="M0 3.42105C0 1.53166 1.53166 0 3.42105 0H4.77273V3.42105H0Z" fill="#003261"/>
<path d="M15 5C15 2.23858 12.7614 0 10 0H3.06818C3.06818 0 2.04545 0 1.36364 0.684211C1.34003 0.707896 3.06818 0 3.40909 1.36842C3.63399 2.27116 3.40909 13 3.40909 13H15V5Z" fill="#007AEB"/>
<path d="M8.51204 3.23535H9.48053V7.01795C9.48053 7.44817 9.38756 7.80842 9.20161 8.09869C9.01566 8.38896 8.76256 8.60796 8.44231 8.75569C8.12464 8.90082 7.76953 8.97339 7.37697 8.97339C6.97149 8.97339 6.60992 8.90082 6.29226 8.75569C5.97459 8.60796 5.72408 8.38896 5.54071 8.09869C5.35992 7.80842 5.26953 7.44817 5.26953 7.01795V3.23535H6.23802V7.01795C6.23802 7.29008 6.28451 7.51426 6.37749 7.6905C6.47046 7.86414 6.60218 7.99243 6.77263 8.07536C6.94308 8.1583 7.14453 8.19977 7.37697 8.19977C7.60941 8.19977 7.80956 8.1583 7.97743 8.07536C8.14789 7.99243 8.2796 7.86414 8.37258 7.6905C8.46555 7.51426 8.51204 7.29008 8.51204 7.01795V3.23535Z" fill="white"/>
<rect x="10.9102" y="4.10547" width="2.72727" height="0.684211" rx="0.342105" fill="white"/>
<rect x="10.9102" y="5.47363" width="1.36364" height="0.684211" rx="0.342105" fill="white"/>
<rect x="6.81836" y="10.2637" width="6.81818" height="0.684211" rx="0.342105" fill="white"/>
</svg>
